<svg xmlns="http://www.w3.org/2000/svg" xmlns:xlink="http://www.w3.org/1999/xlink" width="111.722" height="115.882" viewBox="0 0 111.722 115.882">
  <defs>
    <linearGradient id="linear-gradient" y1="0.5" x2="1" y2="0.5" gradientUnits="objectBoundingBox">
      <stop offset="0" stop-color="#ef3d39"/>
      <stop offset="1" stop-color="#f89920"/>
    </linearGradient>
    <linearGradient id="linear-gradient-2" x1="0" y1="0.5" x2="1" y2="0.5" xlink:href="#linear-gradient"/>
    <linearGradient id="linear-gradient-3" x1="0" y1="0.5" x2="1" y2="0.5" xlink:href="#linear-gradient"/>
    <linearGradient id="linear-gradient-4" x1="0" y1="0.501" x2="1" y2="0.501" xlink:href="#linear-gradient"/>
    <linearGradient id="linear-gradient-5" x1="0" y1="0.502" x2="1" y2="0.502" xlink:href="#linear-gradient"/>
    <linearGradient id="linear-gradient-6" x1="0" y1="0.5" x2="1" y2="0.5" xlink:href="#linear-gradient"/>
    <linearGradient id="linear-gradient-7" x1="0" y1="0.5" x2="1" y2="0.5" xlink:href="#linear-gradient"/>
    <linearGradient id="linear-gradient-8" x1="0" y1="0.5" x2="1" y2="0.5" xlink:href="#linear-gradient"/>
  </defs>
  <g id="بيت_المشورة-01" data-name="بيت المشورة-01" transform="translate(-262.524 -126.83)">
    <g id="Group_2" data-name="Group 2" transform="translate(262.524 126.83)">
      <path id="Path_1" data-name="Path 1" d="M386.98,300.053a34.381,34.381,0,0,0,33.418,0l-7.765-8.047a6.564,6.564,0,0,0-2.754-1.482.662.662,0,0,1-.152-1.223,7.942,7.942,0,0,1,1.717-.673,9.265,9.265,0,0,1,2.6-.27c1.135.028,3.431-.175,3.431-2.281v-2.8l-.719-.1a.771.771,0,0,1-.67-.76V281.38a1.122,1.122,0,0,1,1.125-1.118h1.012v-2.981h1.626a1.587,1.587,0,0,0,1.269-.592.754.754,0,0,0,.18-.452c0-.438-2.355-3.1-3.389-4.246a1.841,1.841,0,0,1-.476-1.237V266.9a10.031,10.031,0,0,0-2.539-6.761,10.2,10.2,0,0,0-7.736-3.248,12.338,12.338,0,0,0-5.677,1.223,12.06,12.06,0,0,0-6.661,10.892v1.324a12.65,12.65,0,0,0,.649,4.018,12.167,12.167,0,0,1,.74,3.37c-.025,1.09-.018,3.763-.007,5.43a8.04,8.04,0,0,1-.511,2.866C394.364,289.546,390.721,298.417,386.98,300.053Z" transform="translate(-343.095 -211.329)" fill="url(#linear-gradient)"/>
      <path id="Path_2" data-name="Path 2" d="M489.925,339.09q2.311,1.534,4.6,3.093c.765.515,1.544,1.016,2.281,1.569s1.467,1.121,2.154,1.748l-.025.031c-.822-.441-1.59-.953-2.366-1.457s-1.5-1.082-2.235-1.636q-2.227-1.645-4.436-3.318Z" transform="translate(-409.724 -264.73)" fill="url(#linear-gradient-2)"/>
      <path id="Path_3" data-name="Path 3" d="M491.844,334.3q2.274.825,4.535,1.678c.755.28,1.52.543,2.257.865s1.467.669,2.172,1.069l-.014.039a23.931,23.931,0,0,1-2.31-.739c-.758-.277-1.488-.62-2.225-.939q-2.221-.951-4.429-1.937Z" transform="translate(-410.973 -261.618)" fill="url(#linear-gradient-3)"/>
      <path id="Path_4" data-name="Path 4" d="M493.444,329.61q2.221.158,4.439.347c.741.06,1.481.095,2.218.2a20.678,20.678,0,0,1,2.193.42l0,.039a20.56,20.56,0,0,1-2.232-.063c-.74-.056-1.474-.179-2.207-.28q-2.206-.294-4.411-.624Z" transform="translate(-412.015 -258.571)" fill="url(#linear-gradient-4)"/>
      <path id="Path_5" data-name="Path 5" d="M494.19,323.312q2.327-.084,4.651-.14c.776-.021,1.552-.067,2.324-.039a22.448,22.448,0,0,1,2.324.179v.038a22.6,22.6,0,0,1-2.324.179c-.776.025-1.551-.018-2.324-.039q-2.327-.053-4.651-.14Z" transform="translate(-412.501 -254.358)" fill="url(#linear-gradient-5)"/>
      <path id="Path_6" data-name="Path 6" d="M493.44,315.314q2.771-.552,5.547-1.068c.924-.175,1.844-.375,2.779-.5s1.869-.245,2.814-.291l.007.039c-.91.266-1.834.452-2.754.641s-1.858.291-2.793.427q-2.793.415-5.592.8Z" transform="translate(-412.015 -248.072)" fill="url(#linear-gradient-6)"/>
      <path id="Path_7" data-name="Path 7" d="M318.441,202.588a8,8,0,0,0,.212,1.86v0c-.007.207,0,.322,0,.322l-34.408,34.188v36.367c0,7.378-9.9,6.705-9.9,6.705-12.264,1.121-11.816-6.705-11.816-6.705V227.261l35.286-35.593,3.713-3.812c12.581-1.822,16.7,4.383,19.306,6.362h0a2.6,2.6,0,0,0,.307,1.033l.07.126.056.1a4.031,4.031,0,0,0,.36.543.336.336,0,0,1-.085.476A7.372,7.372,0,0,0,318.441,202.588Z" transform="translate(-262.524 -166.262)" fill="#515251"/>
      <path id="Path_8" data-name="Path 8" d="M391.074,166.937a2.6,2.6,0,0,0,.307,1.033l.071.126c-3.174-1.16-12.243-2.393-18.11-3.107a2.61,2.61,0,0,1-1.569-4.414l12.31-12.629c2.289-2.147,3.967-2.491,4.986-2.4.018.147.035.294.053.448l.007.063c.8,5.963,1.276,12.135,1.777,18.669l.169,2.211Z" transform="translate(-332.767 -138.981)" fill="url(#linear-gradient-7)"/>
      <path id="Path_9" data-name="Path 9" d="M497.639,189.442a.509.509,0,0,1-.032.774c-15.127,11.946-25.565,2.014-25.565,2.014l-15.184-13.537a.52.52,0,0,1-.169-.354,7.32,7.32,0,0,0-3.1-5.6.5.5,0,0,1-.127-.7c.028-.042.057-.084.081-.126h0a3.793,3.793,0,0,0,.582-1.717l.2-2.47c.469-5.686.913-11.091,1.513-16.35a.516.516,0,0,1,.867-.312Z" transform="translate(-386.079 -142.484)" fill="url(#linear-gradient-8)"/>
      <g id="Group_1" data-name="Group 1" transform="translate(59.64)">
        <path id="Path_10" data-name="Path 10" d="M435.232,126.83c2.437,0,3.494.606,3.494,1.9,0,.97-.2,2.26-.487,4.684-.811,6.66-1.34,13.481-1.95,20.83-.286.445-1.95.445-2.193,0-.568-7.346-1.058-14.167-1.95-20.83-.286-2.421-.487-3.713-.487-4.684,0-1.293,1.1-1.9,3.494-1.9Zm-.081,39.962a3.387,3.387,0,0,1-3.413-3.633,3.471,3.471,0,0,1,3.494-3.633,3.52,3.52,0,0,1,3.614,3.633,3.454,3.454,0,0,1-3.614,3.633Z" transform="translate(-431.66 -126.83)" fill="#515251"/>
      </g>
    </g>
    <g id="Group_3" data-name="Group 3" transform="translate(293.694 226.984)">
      <path id="Path_11" data-name="Path 11" d="M357.045,422.986a2.943,2.943,0,0,1-.832,2.19,3.017,3.017,0,0,1-2.218.827,3.132,3.132,0,0,1-2.243-.813A2.926,2.926,0,0,1,350.92,423a2.809,2.809,0,0,1,3.011-3,3.132,3.132,0,0,1,2.253.8A2.809,2.809,0,0,1,357.045,422.986Zm-3.5-3.966h-1.562v-1.44h1.562Zm1.816,4.029c0-1.153-.465-1.727-1.41-1.727-.92,0-1.372.575-1.372,1.727a1.809,1.809,0,0,0,.339,1.139,1.206,1.206,0,0,0,1.033.476,1.266,1.266,0,0,0,1.072-.476A1.809,1.809,0,0,0,355.359,423.049Zm.564-4.029h-1.562v-1.44h1.562Z" transform="translate(-350.92 -415.877)" fill="#515251"/>
      <path id="Path_12" data-name="Path 12" d="M374.806,429.956a3.127,3.127,0,0,1-.882,2.491,3.9,3.9,0,0,1-2.634.725v-1.415q1.74,0,1.738-1.65V425.44h1.777Z" transform="translate(-364.107 -420.984)" fill="#515251"/>
      <path id="Path_13" data-name="Path 13" d="M391.919,431.082h-1.661q-.3,2.065-2.87,2.063h-.19v-1.4h.152c.681,0,1.083-.249,1.224-.739a4.47,4.47,0,0,1-1.083.073,2.759,2.759,0,0,1-2.86-2.852,2.712,2.712,0,0,1,2.86-2.827,2.742,2.742,0,0,1,2.8,2.866V429.4h1.636v1.678Zm-3.4-1.678v-1.216a1.087,1.087,0,0,0-1.083-1.212c-.666,0-1.019.512-1.019,1.177A1.125,1.125,0,0,0,387.5,429.4Z" transform="translate(-372.743 -420.958)" fill="#515251"/>
      <path id="Path_14" data-name="Path 14" d="M416.737,422.844H403.51v-1.678H405.1c.578,0,.9-.312.9-1.188v-2.8h1.777v2.729a3.59,3.59,0,0,1-.215,1.265h1.121c.592,0,.9-.375.9-1.128v-2.866h1.763v2.729a3.592,3.592,0,0,1-.215,1.265h1.121c.592,0,.9-.375.9-1.128v-2.866h1.777v2.715a3.461,3.461,0,0,1-.226,1.275h2.052v1.678ZM410,416.223h-1.573v-1.44H410Zm1.157-2.063h-1.562v-1.44h1.562Zm1.209,2.063H410.8v-1.44h1.562Z" transform="translate(-384.966 -412.72)" fill="#515251"/>
      <path id="Path_15" data-name="Path 15" d="M448.632,433.077h-2.013a2.726,2.726,0,0,1-2.356,1.076,2.791,2.791,0,0,1-2.394-1.076H439.94V431.4h1.411a2.658,2.658,0,0,1,2.86-2.929,2.7,2.7,0,0,1,2.948,2.929h1.474Zm-3.223-1.713c0-.988-.377-1.489-1.121-1.489h-.127c-.642,0-1.072.6-1.072,1.415,0,.837.427,1.44,1.171,1.44C444.979,432.727,445.409,432.2,445.409,431.364Z" transform="translate(-408.55 -422.952)" fill="#515251"/>
      <path id="Path_16" data-name="Path 16" d="M466.693,424.254a2.52,2.52,0,0,1-.554,1.654,2.112,2.112,0,0,1-1.738.764H462.74v-1.678h1.3c.592,0,.9-.413.9-1.226V418.61H466.7v5.644Z" transform="translate(-423.31 -416.547)" fill="#515251"/>
      <path id="Path_17" data-name="Path 17" d="M479.353,426.652H477.59V418.58h1.763Z" transform="translate(-432.924 -416.527)" fill="#515251"/>
      <path id="Path_18" data-name="Path 18" d="M505.433,428.419h-8.565c-2.782,0-4.168-1.163-4.168-3.5V422.74h1.738v2.176a1.594,1.594,0,0,0,.705,1.513,3.647,3.647,0,0,0,1.763.312h4.016c.592,0,.9-.4.9-1.2v-2.792h1.763v2.729a3.736,3.736,0,0,1-.2,1.265h2.052Zm-7.62-5.668H496.24V421.3h1.573Zm2.38,0H498.62V421.3h1.573Z" transform="translate(-442.706 -418.294)" fill="#515251"/>
      <path id="Path_19" data-name="Path 19" d="M528.982,433.179H527.42v-1.45h1.562Zm4.393-2.078h-5.667v-1.678h1.16c.592,0,.881-.4.881-1.2V425.43h1.777v2.729a3.736,3.736,0,0,1-.2,1.265h2.052V431.1Zm-2.028,2.078h-1.562v-1.45h1.562Z" transform="translate(-465.183 -420.977)" fill="#515251"/>
      <path id="Path_20" data-name="Path 20" d="M547.386,428.691a2.519,2.519,0,0,1-.554,1.653,2.1,2.1,0,0,1-1.724.764h-1.5V429.43h1.121c.592,0,.9-.413.9-1.226V425.44h1.763v3.251Zm-.1,4.495h-1.562v-1.45h1.562Z" transform="translate(-475.664 -420.984)" fill="#515251"/>
    </g>
  </g>
</svg>
