<svg xmlns="http://www.w3.org/2000/svg" xmlns:xlink="http://www.w3.org/1999/xlink" width="294" height="281" viewBox="0 0 294 281">
  <defs>
    <filter id="Rectangle_2103" x="0" y="0" width="294" height="281" filterUnits="userSpaceOnUse">
      <feOffset input="SourceAlpha"/>
      <feGaussianBlur stdDeviation="3" result="blur"/>
      <feFlood flood-opacity="0.161"/>
      <feComposite operator="in" in2="blur"/>
      <feComposite in="SourceGraphic"/>
    </filter>
  </defs>
  <g id="Component_7_1" data-name="Component 7 – 1" transform="translate(9 9)">
    <g id="Group_3713" data-name="Group 3713" transform="translate(-402 -251)">
      <g transform="matrix(1, 0, 0, 1, 393, 242)" filter="url(#Rectangle_2103)">
        <rect id="Rectangle_2103-2" data-name="Rectangle 2103" width="276" height="263" rx="17" transform="translate(9 9)" fill="#383838"/>
      </g>
      <g id="Daleel_w-01" data-name="Daleel w-01" transform="translate(374.181 295.877)">
        <g id="Group_5" data-name="Group 5" transform="translate(71.819 63.123)">
          <g id="Group_4" data-name="Group 4" transform="translate(11.429 31.054)">
            <path id="Path_9" data-name="Path 9" d="M123.643,198.043a2.04,2.04,0,0,1-1.611-.79l-5.794-7.467a2.041,2.041,0,0,1,3.224-2.5l4.074,5.251,6.126-8.995a2.04,2.04,0,0,1,3.372,2.3l-7.7,11.312a2.04,2.04,0,0,1-1.624.891A.544.544,0,0,1,123.643,198.043Z" transform="translate(-115.809 -182.649)" fill="#fff"/>
          </g>
          <path id="Path_10" data-name="Path 10" d="M104.7,74.213a17.491,17.491,0,0,0-5.051-7.051c-.286-.226-.551-.478-.855-.678L97.9,65.86a19.2,19.2,0,0,0-1.907-1.055,16.085,16.085,0,0,0-4.121-1.359,16.52,16.52,0,0,0-4.3-.286l-.538.031c-.179.013-.356.047-.533.068l-1.063.153c-.351.068-.7.158-1.047.239l-.522.125c-.171.044-.34.109-.512.164l-1.016.343c-.33.138-.655.288-.979.434l-.486.221-.468.26c-.309.177-.624.343-.925.53a17.833,17.833,0,0,0-1.717,1.255,10.17,10.17,0,0,0-.8.7l-.748.751c-.249.247-.46.535-.688.8a8.3,8.3,0,0,0-.644.834l-.6.865c-.179.3-.346.611-.517.915-.083.153-.171.3-.249.46l-.213.478c-.138.32-.291.631-.416.956a15.882,15.882,0,0,0-.608,1.985,16.224,16.224,0,0,0,.1,8.093A15.426,15.426,0,0,0,73.927,87.5a15.25,15.25,0,0,0,2.408,3.107,16.445,16.445,0,0,1-1.86-3.378,15.485,15.485,0,0,1-.616-1.8,15.218,15.218,0,0,1-.377-1.847,15.937,15.937,0,0,1-.088-3.72,15.265,15.265,0,0,1,.805-3.58,16.616,16.616,0,0,1,.691-1.678c.133-.27.291-.53.434-.792l.218-.392c.081-.127.169-.249.252-.374l.507-.74.566-.694a6.578,6.578,0,0,1,.6-.66c.213-.208.4-.436.631-.626l.676-.577a2.755,2.755,0,0,1,.351-.273l.359-.257a14.814,14.814,0,0,1,1.489-.943c.26-.138.53-.255.792-.385l.395-.19.413-.153.821-.3.844-.231c.14-.036.278-.083.421-.112l.431-.075c.288-.047.572-.109.86-.148l.87-.073c.145-.01.288-.031.434-.034l.436,0a13.551,13.551,0,0,1,3.429.382c.275.075.561.125.831.221l.813.275c.268.1.525.226.79.333a6.58,6.58,0,0,1,.772.372,15.2,15.2,0,0,1,1.471.873l.683.512c.236.161.434.372.652.551a13.888,13.888,0,0,1,3.809,5.55,10.322,10.322,0,0,1,.327,6.389,9.223,9.223,0,0,1-3.583,5.129A10.486,10.486,0,0,1,94.774,88.6a14.665,14.665,0,0,1-1.639.405l-.821.117c-.273.029-.543.036-.816.06a8.561,8.561,0,0,1-5.913-2.058,11.018,11.018,0,0,1-1.2-1.167l-.275-.322-.262-.335c-.169-.218-.317-.436-.465-.665a7.85,7.85,0,0,1-1.138-2.977,7.726,7.726,0,0,1-.073-1.587,6.832,6.832,0,0,1,.281-1.564,6.145,6.145,0,0,1,1.658-2.655,6.867,6.867,0,0,1,6.147-1.7,6.159,6.159,0,0,1,3.006,1.515,6.043,6.043,0,0,1,1.081,1.356,5.547,5.547,0,0,1,.65,1.608,5.945,5.945,0,0,1-.4,3.554,10.729,10.729,0,0,1-2.063,3.219,9.579,9.579,0,0,0,1.437-1.338,9.964,9.964,0,0,0,1.18-1.608,7.329,7.329,0,0,0,.779-1.889,6.1,6.1,0,0,0,.182-2.1,6.194,6.194,0,0,0-.551-2.073,7.675,7.675,0,0,0-1.148-1.816,7.935,7.935,0,0,0-3.627-2.362,8.916,8.916,0,0,0-4.378-.27,9.185,9.185,0,0,0-4.056,1.876,8.759,8.759,0,0,0-2.692,3.695,9.832,9.832,0,0,0-.566,2.227,9.989,9.989,0,0,0-.039,2.3,11.123,11.123,0,0,0,1.372,4.331c.184.33.39.655.6.961l.32.444.338.431,0,0-5.75,9.267a2.04,2.04,0,0,0,3.466,2.151l5.337-8.6a12.388,12.388,0,0,0,2.307,1.2,12.2,12.2,0,0,0,4.5.818c.377-.013.756-.016,1.128-.047l1.109-.135a18.515,18.515,0,0,0,2.146-.488A14.514,14.514,0,0,0,100,90.457a13.26,13.26,0,0,0,5.2-7.347A14.281,14.281,0,0,0,104.7,74.213Z" transform="translate(-71.819 -63.123)" fill="#f3ae1c"/>
        </g>
        <g id="Group_6" data-name="Group 6" transform="translate(115.948 73.751)">
          <path id="Path_11" data-name="Path 11" d="M241.67,131.209V106.558a2.493,2.493,0,0,1,2.528-2.528h8.039q6.251,0,9.3,3.3v-.021q3.083,3.437,3.081,10.309a18.835,18.835,0,0,1-1.125,6.617l.021-.021a11.743,11.743,0,0,1-3.3,4.544,12.181,12.181,0,0,1-3.695,1.9,22.027,22.027,0,0,1-5.828.553H241.67Zm4.8-4.227h5.038c2.785,0,4.84-.751,6.163-2.271v.021q1.9-2.046,1.9-7.111c0-3.18-.652-5.609-1.777-7.171a6.647,6.647,0,0,0-5.55-2.351h-5.768v18.883Z" transform="translate(-241.67 -104.03)" fill="#fff"/>
          <path id="Path_12" data-name="Path 12" d="M360.325,104.03l9.875,27.179h-5.214l-1.9-5.786h-11.5c-.514,1.777-1.244,3.991-1.777,5.786H344.58l9.086-25.578a2.45,2.45,0,0,1,2.39-1.6Zm-2.964,3.91-4.484,13.588h8.948Z" transform="translate(-317.843 -104.03)" fill="#fff"/>
          <path id="Path_13" data-name="Path 13" d="M458.37,131.209V106.558a2.48,2.48,0,0,1,.751-1.8,2.354,2.354,0,0,1,1.777-.73h2.45v22.793h13.669v4.386H458.37Z" transform="translate(-402.069 -104.03)" fill="#fff"/>
          <path id="Path_14" data-name="Path 14" d="M543.73,131.209V106.558a2.493,2.493,0,0,1,2.528-2.528h17.007v3.991H548.607v6.833h10.9v1.463A2.493,2.493,0,0,1,557,118.844h-8.394v7.979h14.656v4.386H543.73Z" transform="translate(-465.252 -104.03)" fill="#fff"/>
          <path id="Path_15" data-name="Path 15" d="M632.73,131.209V106.558a2.493,2.493,0,0,1,2.528-2.528h17.007v3.991H637.609v6.833h10.9v1.463A2.493,2.493,0,0,1,646,118.844h-8.394v7.979h14.656v4.386H632.73Z" transform="translate(-531.129 -104.03)" fill="#fff"/>
          <path id="Path_16" data-name="Path 16" d="M721.73,131.209V106.558a2.48,2.48,0,0,1,.751-1.8,2.354,2.354,0,0,1,1.777-.73h2.45v22.793h13.669v4.386H721.73Z" transform="translate(-597.005 -104.03)" fill="#fff"/>
        </g>
      </g>
    </g>
    <path id="Rectangle_2105" data-name="Rectangle 2105" d="M0,0H73a0,0,0,0,1,0,0V31A17,17,0,0,1,56,48H0a0,0,0,0,1,0,0V0A0,0,0,0,1,0,0Z" transform="translate(203 215)" fill="#fff"/>
    <path id="Rectangle_2103-3" data-name="Rectangle 2103" d="M0,0H203a0,0,0,0,1,0,0V48a0,0,0,0,1,0,0H17A17,17,0,0,1,0,31V0A0,0,0,0,1,0,0Z" transform="translate(0 215)" fill="#fdab3d"/>
    <text id="_70_" data-name="70%" transform="translate(117 248)" fill="#312f30" font-size="24" font-family="Tajawal-Medium, Tajawal" font-weight="500"><tspan x="0" y="0">70%</tspan></text>
  </g>
</svg>
