<svg xmlns="http://www.w3.org/2000/svg" xmlns:xlink="http://www.w3.org/1999/xlink" width="294" height="281" viewBox="0 0 294 281">
  <defs>
    <filter id="Rectangle_2180" x="0" y="215" width="294" height="66" filterUnits="userSpaceOnUse">
      <feOffset input="SourceAlpha"/>
      <feGaussianBlur stdDeviation="3" result="blur"/>
      <feFlood flood-opacity="0.161"/>
      <feComposite operator="in" in2="blur"/>
      <feComposite in="SourceGraphic"/>
    </filter>
    <filter id="Rectangle_2103" x="0" y="0" width="294" height="281" filterUnits="userSpaceOnUse">
      <feOffset input="SourceAlpha"/>
      <feGaussianBlur stdDeviation="3" result="blur-2"/>
      <feFlood flood-opacity="0.161"/>
      <feComposite operator="in" in2="blur-2"/>
      <feComposite in="SourceGraphic"/>
    </filter>
  </defs>
  <g id="Group_3710" data-name="Group 3710" transform="translate(-393 -242)">
    <g transform="matrix(1, 0, 0, 1, 393, 242)" filter="url(#Rectangle_2180)">
      <path id="Rectangle_2180-2" data-name="Rectangle 2180" d="M0,0H276a0,0,0,0,1,0,0V31a17,17,0,0,1-17,17H17A17,17,0,0,1,0,31V0A0,0,0,0,1,0,0Z" transform="translate(9 224)" fill="#00c875"/>
    </g>
    <g transform="matrix(1, 0, 0, 1, 393, 242)" filter="url(#Rectangle_2103)">
      <rect id="Rectangle_2103-2" data-name="Rectangle 2103" width="276" height="263" rx="17" transform="translate(9 9)" fill="#233975"/>
    </g>
    <g id="Group_3728" data-name="Group 3728">
      <g id="Dafa-w-01" transform="translate(460.477 256.05)">
        <g id="Group_3673" data-name="Group 3673" transform="translate(20.81 34.95)">
          <g id="Group_3672" data-name="Group 3672" transform="translate(47.802)">
            <path id="Path_4092" data-name="Path 4092" d="M363.445,379.577s4.442,12.246,9.487,7.2-7.817-9.1-7.817-9.1l-.754-.754-1.6,1.965Z" transform="translate(-319.765 -286.125)" fill="#fff"/>
            <path id="Path_4093" data-name="Path 4093" d="M417.4,247.482H416.34l.255,2.523h.967s11.8,5.518,11.8-1.614S417.4,247.482,417.4,247.482Z" transform="translate(-359.118 -189.201)" fill="#fff"/>
            <path id="Path_4094" data-name="Path 4094" d="M231.6,47.719l2.523.255V46.909s6.227-11.959-.905-11.959-1.614,11.8-1.614,11.8v.967Z" transform="translate(-221.936 -34.95)" fill="#fff"/>
            <g id="Group_3671" data-name="Group 3671" transform="translate(40.042 16.482)">
              <rect id="Rectangle_2086" data-name="Rectangle 2086" width="2.562" height="4.336" transform="translate(0 10.498) rotate(-45)" fill="#fff"/>
              <path id="Path_4095" data-name="Path 4095" d="M371.57,98.241c-5.042-5.042-9.487,7.2-9.487,7.2l-.682.682,1.6,1.965.751-.751S376.615,103.286,371.57,98.241Z" transform="translate(-358.808 -97.024)" fill="#fff"/>
            </g>
            <path id="Path_4096" data-name="Path 4096" d="M233.581,431.71l-2.522.255v.967s-5.518,11.8,1.614,11.8.905-11.959.905-11.959V431.71Z" transform="translate(-221.539 -326.359)" fill="#fff"/>
            <circle id="Ellipse_51" data-name="Ellipse 51" cx="9.84" cy="9.84" r="9.84" transform="translate(0 42.334) rotate(-9.218)" fill="#fff"/>
          </g>
          <circle id="Ellipse_52" data-name="Ellipse 52" cx="6.821" cy="6.821" r="6.821" transform="translate(69.515 50.955)" fill="#fff"/>
          <circle id="Ellipse_53" data-name="Ellipse 53" cx="6.821" cy="6.821" r="6.821" transform="translate(32.781 57.776) rotate(-45)" fill="#fff"/>
          <path id="Path_4097" data-name="Path 4097" d="M146.843,127.36a34.763,34.763,0,1,0,34.763,34.763A34.8,34.8,0,0,0,146.843,127.36Zm30.477,46.852a16.844,16.844,0,0,0-3.521-2.252c-4.522-2.371-10.807-2.738-10.807-2.738,3.537,3.08,2.284,7.684,2.284,7.684-3.765-11.221-18.64-10.425-18.64-10.425-14.835-.374-17.881,10.233-17.881,10.233-1.673-3.765,2.284-7.607,2.284-7.607s-8.592-1.15-14.357,5.873a32.793,32.793,0,1,1,60.638-.77Z" transform="translate(-87.845 -102.823)" fill="#fff"/>
          <path id="Path_4098" data-name="Path 4098" d="M123.274,128.29v-.826h-3.688a39.73,39.73,0,0,0-9.737-23.412L112.3,101.6l-.581-.581-3.064-3.064-.584-.584-2.48,2.48a39.7,39.7,0,0,0-23.852-9.41h.844V86.562h-.82V84H77.42v2.562H76.6v3.882h1.3a39.7,39.7,0,0,0-24.075,9.58l-2.655-2.655-.584.584-1.811-1.811-.68.68h0l-.751-.751s-4.055-12.859-9.1-7.817,7.2,9.487,7.2,9.487l.682.682,1.96-1.6L45.711,99.2l1.811,1.811-.582.584,2.65,2.65a39.685,39.685,0,0,0-9.556,23.09H36.4v.823H33.834v3.354l-.255-2.507h-.967s-11.8-5.518-11.8,1.614,11.959.905,11.959.905h1.062v.967h2.562v.823h3.646a39.71,39.71,0,0,0,9.442,22.849L46.8,158.852l.584.582-1.811,1.811,1.691,1.694-1.219-1-.68.68s-12.246,4.445-7.2,9.487,9.1-7.812,9.1-7.812l.68-.685.7.7,1.811-1.811.584.582,2.671-2.671A39.691,39.691,0,0,0,76.465,170v3.755h.823v2.562h4.333v-2.562h.823v-3.7a39.687,39.687,0,0,0,23.467-9.657l2.523,2.528.584-.584,1.811,1.811,2.379-2.384.685-.68-1.811-1.811.582-.584-2.53-2.53a39.7,39.7,0,0,0,9.426-22.726h3.715v-.823h2.56v-4.336h-2.56Zm-17.026-25.966a1.261,1.261,0,1,1-1.261,1.261A1.262,1.262,0,0,1,106.249,102.324ZM79.5,91.238A1.261,1.261,0,1,1,78.244,92.5,1.262,1.262,0,0,1,79.5,91.238ZM52.918,102.324a1.261,1.261,0,1,1-1.261,1.261A1.262,1.262,0,0,1,52.918,102.324ZM42.042,131.537a1.261,1.261,0,1,1,1.261-1.261A1.262,1.262,0,0,1,42.042,131.537Zm10.826,26.534a1.261,1.261,0,1,1,1.261-1.261A1.262,1.262,0,0,1,52.867,158.072ZM79.3,169.131a1.261,1.261,0,1,1,1.261-1.261A1.262,1.262,0,0,1,79.3,169.131Zm27.479-11.086a1.261,1.261,0,1,1,1.261-1.261A1.262,1.262,0,0,1,106.774,158.045Zm-26.967,7.769a35.538,35.538,0,1,1,35.538-35.538A35.578,35.578,0,0,1,79.808,165.814Zm37.686-34.277a1.261,1.261,0,1,1,1.261-1.261A1.262,1.262,0,0,1,117.494,131.537Z" transform="translate(-20.81 -70.976)" fill="#fff"/>
        </g>
        <g id="Group_3674" data-name="Group 3674" transform="translate(30.977 147.446)">
          <path id="Path_4099" data-name="Path 4099" d="M74.629,463.577a2.479,2.479,0,0,0,0-4.957,2.468,2.468,0,0,0-2.459,2.459A2.428,2.428,0,0,0,74.629,463.577Z" transform="translate(-68.7 -458.62)" fill="#fff"/>
          <path id="Path_4100" data-name="Path 4100" d="M98.809,463.577a2.425,2.425,0,0,0,2.419-2.419,2.453,2.453,0,0,0-2.419-2.538,2.5,2.5,0,0,0-2.5,2.459A2.461,2.461,0,0,0,98.809,463.577Z" transform="translate(-86.43 -458.62)" fill="#fff"/>
          <path id="Path_4101" data-name="Path 4101" d="M130.572,485.486a7.24,7.24,0,0,0-4.272,1.29,5.972,5.972,0,0,0-2.5,5.2c0,4.232,2.257,6.37,6.771,6.37a6.051,6.051,0,0,0,2.661-.483c-.281,1.612-1.734,2.419-4.434,2.419H77.363c-1.976,0-2.942-1.089-2.942-3.266v-13.5q-2.238.422-4.838,1.089l.242,1.814h-1.29a9.685,9.685,0,0,0-6.853,2.419,8.058,8.058,0,0,0-2.581,6.288c0,4.838,2.621,7.9,6.933,7.9a11.264,11.264,0,0,0,5.2-1.168,6.681,6.681,0,0,0,5.119,2.055h52.123c6.168,0,9.028-2.982,9.028-10.2v-1.9a6.04,6.04,0,0,0-1.694-4.474A7.115,7.115,0,0,0,130.572,485.486Zm-60.1,13.7a12.642,12.642,0,0,1-3.508.483c-2.459,0-3.709-1.774-3.749-5.281a5.166,5.166,0,0,1,5.08-5.281c.685,0,1.41-.04,2.177-.08Zm63.044-4.031a7.222,7.222,0,0,1-3.1.605c-1.734,0-2.621-1.168-2.621-3.508,0-2.862.967-4.312,2.9-4.312,1.893,0,2.862,1.33,2.862,3.951C133.557,493.143,133.557,494.232,133.514,495.159Z" transform="translate(-59.1 -476.901)" fill="#fff"/>
          <path id="Path_4102" data-name="Path 4102" d="M321.209,467.438a2.44,2.44,0,1,0-2.5-2.459A2.4,2.4,0,0,0,321.209,467.438Z" transform="translate(-249.776 -461.514)" fill="#fff"/>
          <path id="Path_4103" data-name="Path 4103" d="M384.351,509.485v-4.355a9.618,9.618,0,0,0-2.3-6.45,7.412,7.412,0,0,0-5.924-2.581,9.6,9.6,0,0,1-1.251.162c.122,1.089.2,1.853.2,2.257a3.072,3.072,0,0,1,1.251-.281,3.338,3.338,0,0,1,2.823,1.532,8.366,8.366,0,0,1,1.168,4.676v4.233l-.122.847H370l-1.049,3.627h16Z" transform="translate(-286.676 -486.148)" fill="#fff"/>
        </g>
        <g id="Group_3675" data-name="Group 3675" transform="translate(47.846 163.787)">
          <path id="Path_4104" data-name="Path 4104" d="M126.284,523.4l.645.162a2.178,2.178,0,0,1-.728,1.211,2,2,0,0,1-1.285.417,2.3,2.3,0,0,1-1.28-.321,1.983,1.983,0,0,1-.749-.927,3.283,3.283,0,0,1-.258-1.3,2.858,2.858,0,0,1,.289-1.325,2.005,2.005,0,0,1,.826-.86,2.413,2.413,0,0,1,1.179-.295,2.012,2.012,0,0,1,1.229.372,1.927,1.927,0,0,1,.693,1.046l-.635.149a1.5,1.5,0,0,0-.491-.773,1.309,1.309,0,0,0-.81-.242,1.577,1.577,0,0,0-.937.268,1.4,1.4,0,0,0-.528.722,2.933,2.933,0,0,0-.151.935,2.987,2.987,0,0,0,.181,1.083,1.351,1.351,0,0,0,.563.693,1.568,1.568,0,0,0,.826.228,1.387,1.387,0,0,0,.916-.311A1.631,1.631,0,0,0,126.284,523.4Z" transform="translate(-122.63 -520.16)" fill="#fff"/>
          <path id="Path_4105" data-name="Path 4105" d="M141.84,525.334V520.47H144a2.893,2.893,0,0,1,.99.13,1.088,1.088,0,0,1,.542.462,1.371,1.371,0,0,1,.2.733,1.226,1.226,0,0,1-.335.874,1.694,1.694,0,0,1-1.036.451,1.669,1.669,0,0,1,.388.242,3.262,3.262,0,0,1,.534.648l.847,1.325h-.81l-.645-1.012c-.189-.292-.343-.515-.465-.669a1.554,1.554,0,0,0-.327-.327.961.961,0,0,0-.295-.13,1.876,1.876,0,0,0-.358-.024h-.746v2.161Zm.645-2.719h1.383a2.075,2.075,0,0,0,.69-.09.738.738,0,0,0,.377-.292.775.775,0,0,0,.13-.435.724.724,0,0,0-.25-.568,1.168,1.168,0,0,0-.791-.223h-1.54Z" transform="translate(-136.739 -520.388)" fill="#fff"/>
          <path id="Path_4106" data-name="Path 4106" d="M160.22,525.327v-4.864h.969l1.152,3.444c.106.321.183.56.234.72.056-.178.141-.438.258-.781L164,520.46h.866v4.864h-.621v-4.073l-1.413,4.073h-.582l-1.407-4.142v4.142h-.621Z" transform="translate(-150.239 -520.38)" fill="#fff"/>
        </g>
      </g>
    </g>
  </g>
</svg>
