<svg xmlns="http://www.w3.org/2000/svg" xmlns:xlink="http://www.w3.org/1999/xlink" width="257" height="1080" viewBox="0 0 257 1080">
  <defs>
    <filter id="Rectangle_1" x="0" y="0" width="257" height="1080" filterUnits="userSpaceOnUse">
      <feOffset dy="3" input="SourceAlpha"/>
      <feGaussianBlur stdDeviation="5" result="blur"/>
      <feFlood flood-color="#fff" flood-opacity="0.502" result="color"/>
      <feComposite operator="out" in="SourceGraphic" in2="blur"/>
      <feComposite operator="in" in="color"/>
      <feComposite operator="in" in2="SourceGraphic"/>
    </filter>
  </defs>
  <g data-type="innerShadowGroup">
    <path id="Rectangle_1-2" data-name="Rectangle 1" d="M0,0H207a50,50,0,0,1,50,50v980a50,50,0,0,1-50,50H0a0,0,0,0,1,0,0V0A0,0,0,0,1,0,0Z" fill="#312f30"/>
    <g transform="matrix(1, 0, 0, 1, 0, 0)" filter="url(#Rectangle_1)">
      <path id="Rectangle_1-3" data-name="Rectangle 1" d="M0,0H207a50,50,0,0,1,50,50v980a50,50,0,0,1-50,50H0a0,0,0,0,1,0,0V0A0,0,0,0,1,0,0Z" fill="#fff"/>
    </g>
  </g>
</svg>
