<svg xmlns="http://www.w3.org/2000/svg" width="154.165" height="154" viewBox="0 0 154.165 154">
  <g id="Group_60" data-name="Group 60" transform="translate(-105 -323)">
    <g id="Group_55" data-name="Group 55" transform="translate(105 323)">
      <path id="Path_177" data-name="Path 177" d="M51.083,0H0V51.083H51.083ZM39.063,39.063H12.019V12.019H39.063Z" transform="translate(0.158 0.151)" fill="#303030"/>
      <rect id="Rectangle_21" data-name="Rectangle 21" width="13.002" height="13.002" transform="translate(19.503 19.503)" fill="#303030"/>
      <path id="Path_178" data-name="Path 178" d="M342,0V51.083h51.083V0Zm39.063,39.063H354.019V12.019h27.044Z" transform="translate(-239.076 0.151)" fill="#303030"/>
      <rect id="Rectangle_22" data-name="Rectangle 22" width="13.002" height="13.002" transform="translate(121.661 19.503)" fill="#303030"/>
      <path id="Path_179" data-name="Path 179" d="M0,393.083H51.083V342H0Zm12.019-39.063H39.063v27.044H12.019Z" transform="translate(0.158 -239.083)" fill="#303030"/>
      <rect id="Rectangle_23" data-name="Rectangle 23" width="13.002" height="13.002" transform="translate(19.503 121.661)" fill="#303030"/>
      <rect id="Rectangle_24" data-name="Rectangle 24" width="10.216" height="12.073" transform="translate(13.002 59.437)" fill="#303030"/>
      <path id="Path_180" data-name="Path 180" d="M80,249.019H91.719v12.019h12.019V249.019H92.019V237H80Z" transform="translate(-55.803 -165.634)" fill="#303030"/>
      <rect id="Rectangle_25" data-name="Rectangle 25" width="11.144" height="12.073" transform="translate(84.512 23.218)" fill="#303030"/>
      <rect id="Rectangle_26" data-name="Rectangle 26" width="13.002" height="22.289" transform="translate(59.437 13.002)" fill="#303030"/>
      <rect id="Rectangle_27" data-name="Rectangle 27" width="12.073" height="13.002" transform="translate(72.439 0)" fill="#303030"/>
      <path id="Path_181" data-name="Path 181" d="M212.019,117v12.019H200v12.019h24.039V117Z" transform="translate(-139.745 -81.692)" fill="#303030"/>
      <path id="Path_182" data-name="Path 182" d="M212.019,261.039v11.719h12.02v11.719h24.039V272.457H224.039V260.738h-12.02V237H200v24.039Z" transform="translate(-139.745 -165.634)" fill="#303030"/>
      <rect id="Rectangle_28" data-name="Rectangle 28" width="11.144" height="24.146" transform="translate(84.512 59.437)" fill="#303030"/>
      <path id="Path_183" data-name="Path 183" d="M393.654,197H371.719v12.019H360v12.019h12.019v11.719h33.654V208.719h-12.02Zm0,23.738H372.019V209.019h21.635Z" transform="translate(-251.667 -137.653)" fill="#303030"/>
      <rect id="Rectangle_29" data-name="Rectangle 29" width="13.002" height="24.146" transform="translate(141.163 106.801)" fill="#303030"/>
      <rect id="Rectangle_30" data-name="Rectangle 30" width="13.002" height="11.144" transform="translate(95.657 83.584)" fill="#303030"/>
      <rect id="Rectangle_31" data-name="Rectangle 31" width="12.073" height="12.073" transform="translate(108.659 118.874)" fill="#303030"/>
      <rect id="Rectangle_32" data-name="Rectangle 32" width="12.073" height="12.073" transform="translate(120.732 106.801)" fill="#303030"/>
      <path id="Path_184" data-name="Path 184" d="M412.019,458.137V447.02h9.616V435H400v23.137Z" transform="translate(-279.647 -304.137)" fill="#303030"/>
      <rect id="Rectangle_33" data-name="Rectangle 33" width="13.002" height="24.146" transform="translate(59.437 106.801)" fill="#303030"/>
      <path id="Path_185" data-name="Path 185" d="M252.019,456.039V444.02h11.719v12.019h12.019V444.02H264.039V432H240v24.039Z" transform="translate(-167.725 -302.039)" fill="#303030"/>
      <rect id="Rectangle_34" data-name="Rectangle 34" width="23.218" height="12.073" transform="translate(36.22 59.437)" fill="#303030"/>
      <rect id="Rectangle_35" data-name="Rectangle 35" width="13.002" height="23.218" transform="translate(0 71.51)" fill="#303030"/>
    </g>
  </g>
</svg>
