<svg xmlns="http://www.w3.org/2000/svg" xmlns:xlink="http://www.w3.org/1999/xlink" width="128.29" height="133.936" viewBox="0 0 128.29 133.936">
  <defs>
    <linearGradient id="linear-gradient" y1="0.5" x2="1" y2="0.5" gradientUnits="objectBoundingBox">
      <stop offset="0" stop-color="#ef3d39"/>
      <stop offset="1" stop-color="#f89920"/>
    </linearGradient>
    <linearGradient id="linear-gradient-2" x1="0" y1="0.5" x2="1" y2="0.5" xlink:href="#linear-gradient"/>
    <linearGradient id="linear-gradient-3" x1="0" y1="0.5" x2="1" y2="0.5" xlink:href="#linear-gradient"/>
    <linearGradient id="linear-gradient-4" x1="0" y1="0.501" x2="1" y2="0.501" xlink:href="#linear-gradient"/>
    <linearGradient id="linear-gradient-5" x1="0" y1="0.502" x2="1" y2="0.502" xlink:href="#linear-gradient"/>
    <linearGradient id="linear-gradient-6" x1="0" y1="0.5" x2="1" y2="0.5" xlink:href="#linear-gradient"/>
    <linearGradient id="linear-gradient-7" x1="0" y1="0.5" x2="1" y2="0.5" xlink:href="#linear-gradient"/>
    <linearGradient id="linear-gradient-8" x1="0" y1="0.5" x2="1" y2="0.5" xlink:href="#linear-gradient"/>
  </defs>
  <g id="بيت_المشورة-01" data-name="بيت المشورة-01" transform="translate(-262.524 -126.83)">
    <g id="Group_2" data-name="Group 2" transform="translate(262.524 126.83)">
      <path id="Path_1" data-name="Path 1" d="M386.98,306.777a39.26,39.26,0,0,0,38.373,0l-8.916-9.3a7.526,7.526,0,0,0-3.162-1.713.767.767,0,0,1-.174-1.413,9.088,9.088,0,0,1,1.972-.777,10.575,10.575,0,0,1,2.984-.312c1.3.032,3.94-.2,3.94-2.636v-3.231l-.826-.113a.889.889,0,0,1-.769-.879V285.2a1.293,1.293,0,0,1,1.292-1.292h1.162v-3.446h1.867a1.818,1.818,0,0,0,1.458-.684.875.875,0,0,0,.206-.522c0-.506-2.7-3.583-3.891-4.907a2.135,2.135,0,0,1-.547-1.429v-4.45a11.364,11.364,0,0,0-11.8-11.568,14.091,14.091,0,0,0-6.519,1.413,13.95,13.95,0,0,0-7.649,12.589v1.531a14.71,14.71,0,0,0,.745,4.644,14.143,14.143,0,0,1,.85,3.9c-.028,1.259-.02,4.349-.008,6.276a9.349,9.349,0,0,1-.587,3.312C395.459,294.634,391.276,304.886,386.98,306.777Z" transform="translate(-336.587 -204.23)" fill="url(#linear-gradient)"/>
      <path id="Path_2" data-name="Path 2" d="M489.928,339.09q2.654,1.774,5.284,3.575c.879.6,1.773,1.174,2.62,1.814s1.684,1.3,2.474,2.02l-.028.036c-.943-.51-1.826-1.1-2.717-1.684s-1.717-1.251-2.567-1.891q-2.557-1.9-5.094-3.835Z" transform="translate(-397.834 -253.145)" fill="url(#linear-gradient-2)"/>
      <path id="Path_3" data-name="Path 3" d="M491.846,334.3q2.612.954,5.207,1.939c.866.324,1.745.628,2.591,1s1.685.773,2.494,1.235l-.016.044a27.336,27.336,0,0,1-2.652-.854c-.87-.32-1.709-.717-2.555-1.085q-2.551-1.1-5.086-2.239Z" transform="translate(-398.983 -250.294)" fill="url(#linear-gradient-3)"/>
      <path id="Path_4" data-name="Path 4" d="M493.444,329.61q2.551.182,5.1.4c.85.069,1.7.109,2.547.235a23.632,23.632,0,0,1,2.518.486l0,.045a23.483,23.483,0,0,1-2.563-.073c-.85-.065-1.693-.206-2.535-.324q-2.533-.34-5.065-.721Z" transform="translate(-399.941 -247.503)" fill="url(#linear-gradient-4)"/>
      <path id="Path_5" data-name="Path 5" d="M494.19,323.342q2.672-.1,5.341-.162c.891-.024,1.782-.077,2.668-.045a25.628,25.628,0,0,1,2.668.207v.044a25.817,25.817,0,0,1-2.668.207c-.891.028-1.781-.02-2.668-.045q-2.672-.061-5.341-.162Z" transform="translate(-400.387 -243.644)" fill="url(#linear-gradient-5)"/>
      <path id="Path_6" data-name="Path 6" d="M493.44,315.6q3.182-.638,6.369-1.235c1.061-.2,2.118-.433,3.191-.583s2.146-.283,3.231-.336l.008.044c-1.045.308-2.106.522-3.162.741s-2.134.336-3.207.494q-3.207.48-6.422.919Z" transform="translate(-399.941 -237.886)" fill="url(#linear-gradient-6)"/>
      <path id="Path_7" data-name="Path 7" d="M326.732,204.934a9.3,9.3,0,0,0,.243,2.15v0c-.008.239,0,.372,0,.372l-39.511,39.515v42.033c0,8.527-11.37,7.75-11.37,7.75-14.083,1.3-13.568-7.75-13.568-7.75V233.452l40.519-41.138,4.264-4.405c14.447-2.105,19.176,5.065,22.169,7.353h0a3.02,3.02,0,0,0,.352,1.194l.081.146.065.113a4.661,4.661,0,0,0,.413.628.39.39,0,0,1-.1.551A8.537,8.537,0,0,0,326.732,204.934Z" transform="translate(-262.524 -162.95)" fill="#515251"/>
      <path id="Path_8" data-name="Path 8" d="M394.047,170.271a3.02,3.02,0,0,0,.352,1.194l.081.146c-3.644-1.34-14.058-2.766-20.8-3.591a3.021,3.021,0,0,1-1.8-5.1l14.135-14.6c2.628-2.482,4.555-2.879,5.725-2.774.02.17.041.34.061.518l.008.073c.919,6.891,1.466,14.026,2.041,21.577l.194,2.555Z" transform="translate(-327.093 -137.96)" fill="url(#linear-gradient-7)"/>
      <path id="Path_9" data-name="Path 9" d="M504.2,195.442a.591.591,0,0,1-.036.895c-17.37,13.807-29.356,2.328-29.356,2.328L457.375,183.02a.6.6,0,0,1-.194-.409,8.473,8.473,0,0,0-3.555-6.474.583.583,0,0,1-.146-.806c.032-.049.065-.1.093-.146h0a4.4,4.4,0,0,0,.668-1.984l.235-2.855c.539-6.572,1.049-12.819,1.737-18.9a.592.592,0,0,1,1-.36Z" transform="translate(-376.1 -141.169)" fill="url(#linear-gradient-8)"/>
      <g id="Group_1" data-name="Group 1" transform="translate(68.484)">
        <path id="Path_10" data-name="Path 10" d="M435.762,126.83c2.8,0,4.013.7,4.013,2.195,0,1.122-.235,2.612-.559,5.414-.931,7.7-1.539,15.581-2.239,24.076-.328.514-2.239.514-2.518,0-.652-8.491-1.215-16.374-2.239-24.076-.328-2.8-.559-4.292-.559-5.414,0-1.494,1.259-2.195,4.013-2.195Zm-.093,46.188a3.9,3.9,0,0,1-3.919-4.2,4,4,0,0,1,4.013-4.2,4.056,4.056,0,0,1,4.15,4.2,3.979,3.979,0,0,1-4.15,4.2Z" transform="translate(-431.66 -126.83)" fill="#515251"/>
      </g>
    </g>
    <g id="Group_3" data-name="Group 3" transform="translate(298.316 242.589)">
      <path id="Path_11" data-name="Path 11" d="M357.953,423.828a3.414,3.414,0,0,1-.956,2.531,3.452,3.452,0,0,1-2.547.956,3.583,3.583,0,0,1-2.575-.939,3.4,3.4,0,0,1-.956-2.531,3.449,3.449,0,0,1,.939-2.531,3.4,3.4,0,0,1,2.518-.939,3.583,3.583,0,0,1,2.587.927A3.258,3.258,0,0,1,357.953,423.828Zm-4.021-4.584h-1.794V417.58h1.794Zm2.085,4.656c0-1.332-.534-2-1.62-2-1.057,0-1.575.664-1.575,2a2.1,2.1,0,0,0,.389,1.316,1.381,1.381,0,0,0,1.186.551,1.45,1.45,0,0,0,1.231-.551A2.1,2.1,0,0,0,356.018,423.9Zm.648-4.656h-1.794V417.58h1.794Z" transform="translate(-350.92 -415.612)" fill="#515251"/>
      <path id="Path_12" data-name="Path 12" d="M375.327,430.659a3.627,3.627,0,0,1-1.012,2.879,4.456,4.456,0,0,1-3.025.838V432.74q2,0,2-1.907V425.44h2.041Z" transform="translate(-363.042 -420.289)" fill="#515251"/>
      <path id="Path_13" data-name="Path 13" d="M393,431.968h-1.907q-.346,2.387-3.3,2.385h-.219v-1.62h.174c.781,0,1.243-.287,1.405-.854a5.1,5.1,0,0,1-1.243.085,3.179,3.179,0,0,1-3.284-3.3,3.125,3.125,0,0,1,3.284-3.268,3.159,3.159,0,0,1,3.211,3.312v1.316H393v1.94Zm-3.907-1.94v-1.405a1.253,1.253,0,0,0-1.243-1.4c-.765,0-1.17.591-1.17,1.36a1.3,1.3,0,0,0,1.243,1.445Z" transform="translate(-370.981 -420.266)" fill="#515251"/>
      <path id="Path_14" data-name="Path 14" d="M418.7,424.422H403.51v-1.94h1.822c.664,0,1.028-.36,1.028-1.373V417.87H408.4v3.154a4.175,4.175,0,0,1-.247,1.462h1.288c.68,0,1.028-.433,1.028-1.3V417.87h2.025v3.154a4.177,4.177,0,0,1-.247,1.462h1.288c.68,0,1.028-.433,1.028-1.3V417.87H416.6v3.138a4.025,4.025,0,0,1-.259,1.474H418.7v1.94Zm-7.738-7.653h-1.806V415.1h1.806Zm1.328-2.385h-1.794V412.72h1.794Zm1.389,2.385h-1.794V415.1h1.794Z" transform="translate(-382.216 -412.72)" fill="#515251"/>
      <path id="Path_15" data-name="Path 15" d="M449.921,433.794h-2.312a3.123,3.123,0,0,1-2.7,1.243,3.2,3.2,0,0,1-2.749-1.243H439.94v-1.94h1.62a3.063,3.063,0,0,1,3.284-3.385,3.11,3.11,0,0,1,3.385,3.385h1.693Zm-3.7-1.98c0-1.142-.433-1.721-1.288-1.721h-.146c-.737,0-1.231.692-1.231,1.636,0,.968.49,1.664,1.344,1.664C445.726,433.39,446.22,432.782,446.22,431.815Z" transform="translate(-403.895 -422.093)" fill="#515251"/>
      <path id="Path_16" data-name="Path 16" d="M467.279,425.133a2.925,2.925,0,0,1-.636,1.911,2.419,2.419,0,0,1-2,.883H462.74v-1.939h1.49c.68,0,1.028-.478,1.028-1.417v-5.96h2.025v6.523Z" transform="translate(-417.463 -416.225)" fill="#515251"/>
      <path id="Path_17" data-name="Path 17" d="M479.615,427.909H477.59V418.58h2.025Z" transform="translate(-426.301 -416.207)" fill="#515251"/>
      <path id="Path_18" data-name="Path 18" d="M507.321,429.528h-9.835c-3.195,0-4.786-1.344-4.786-4.049v-2.514h2v2.514a1.846,1.846,0,0,0,.81,1.749,4.164,4.164,0,0,0,2.025.36h4.612c.68,0,1.028-.462,1.028-1.389v-3.227H505.2v3.154a4.344,4.344,0,0,1-.231,1.462h2.357Zm-8.75-6.551h-1.806V421.3h1.806Zm2.733,0H499.5V421.3H501.3Z" transform="translate(-435.292 -417.826)" fill="#515251"/>
      <path id="Path_19" data-name="Path 19" d="M529.214,434.387H527.42V432.71h1.794Zm5.045-2.4h-6.507v-1.94h1.332c.68,0,1.012-.462,1.012-1.389V425.43h2.041v3.154a4.343,4.343,0,0,1-.231,1.462h2.356v1.94Zm-2.328,2.4h-1.794V432.71h1.794Z" transform="translate(-455.954 -420.284)" fill="#515251"/>
      <path id="Path_20" data-name="Path 20" d="M547.946,429.2a2.923,2.923,0,0,1-.636,1.911,2.408,2.408,0,0,1-1.98.883H543.61v-1.939H544.9c.68,0,1.029-.478,1.029-1.417V425.44h2.024V429.2Zm-.117,5.2h-1.794v-1.676h1.794Z" transform="translate(-465.589 -420.289)" fill="#515251"/>
    </g>
  </g>
</svg>
